<?xml version="1.0" encoding="utf-8"?>
<svg xmlns="http://www.w3.org/2000/svg" viewBox="-100 600 1400 1300">
  <defs>
    <path id="path-0" d="M -328.953 150.763 C -267.749 199.268 -216.947 223.935 -180.04 223.935 C -168.038 230.802 -154.583 230.354 -145.38 230.354 L -142.812 230.354 C -138.411 229.474 -124.332 222.652 -123.557 222.652" style="fill: none;"/>
    <path id="path-1" d="M -284.022 161.033 C -259.917 190.273 -241.803 191.499 -226.255 200.828 L -221.12 202.112 C -211.138 207.103 -193.646 203.396 -182.608 203.396" style="fill: none;"/>
    <path id="path-2" d="M -284.875 187.793 C -269.755 187.793 -243.671 191.42 -238.498 186.247 C -226.675 186.247 -216.531 184.701 -206.034 184.701 C -194.142 184.701 -182.318 180.063 -175.116 180.063" style="fill: none;"/>
  </defs>
  <g id="Layer_1">
    <path id="Dobong-gu" class="gu-region" fill-rule="evenodd" clip-rule="evenodd" fill="#C8C8C8" d="M 865.486 734.058 C 864.039 743.076 865.201 752.163 863.484 761.564 C 861.416 772.896 854.466 783.665 851.982 795.071 C 851.115 799.05 851.005 804.272 850.482 809.074 C 849.974 813.73 848.513 819.203 848.982 823.077 C 849.761 829.533 854.738 837.117 857.484 844.082 C 859.771 849.887 864.869 860.03 865.486 865.587 C 866.025 870.443 864.533 877.215 863.984 883.091 C 863.437 888.97 862.5 894.995 861.984 900.595 C 860.849 912.941 861.185 925.963 858.984 936.603 C 857.402 944.244 853.414 951.005 851.982 958.108 C 850.257 966.666 850.711 976.546 848.982 985.614 C 842.169 985.636 835.595 985.897 829.476 986.614 C 814.683 967.503 797.771 947.105 780.966 928.601 C 776.064 923.203 769.749 912.523 763.462 910.097 C 756.446 907.39 745.839 910.139 741.456 903.096 C 736.997 898.22 732.329 893.552 727.454 889.093 C 727.306 888.073 726.1 888.113 725.952 887.093 C 721.993 882.717 717.825 878.549 713.45 874.59 C 710.966 864.867 715.884 858.404 716.95 850.585 C 718.106 848.907 717.126 845.092 717.45 842.584 C 717.45 838.416 717.45 834.249 717.45 830.081 C 715.536 816.577 720.382 804.698 719.952 793.072 C 719.493 780.688 714.716 769.274 713.95 756.564 C 725.706 755.239 721.513 735.382 722.952 721.056 C 723.79 712.723 728.401 707.149 729.454 701.552 C 739.452 697.046 752.052 695.144 767.462 696.051 C 769.64 695.728 773.116 696.703 774.464 695.551 C 777.915 696.163 782.415 694.748 784.966 695.551 C 794.144 698.438 788.517 716.408 794.968 720.556 C 799.37 723.387 809.011 721.773 815.474 722.056 C 822.915 722.384 829.773 722.69 836.478 723.056 C 845.457 727.415 850.248 735.959 865.486 734.058 Z" style="stroke-width: 1;"/>
    <path id="Dongdaemun-gu" class="gu-region" fill-rule="evenodd" clip-rule="evenodd" fill="#C8C8C8" d="M 844.481 1131.65 C 861.795 1118.79 890.331 1117.15 913.497 1110.14 C 918.224 1160.93 923.77 1210.9 929.001 1261.18 C 922.446 1276.13 916.661 1291.85 909.997 1306.69 C 887.149 1297.19 862.862 1289.14 838.479 1281.18 C 836.483 1273.35 834.26 1265.73 831.479 1258.68 C 830.475 1257.18 827.374 1257.78 824.977 1257.68 C 824.284 1256.54 821.497 1257.49 819.975 1257.18 C 815.045 1257.48 810.032 1256.88 804.973 1256.68 C 799.862 1256.47 793.649 1255 789.969 1256.18 C 784.998 1257.77 785.487 1264.7 780.967 1267.18 C 779.467 1267.18 777.965 1267.18 776.465 1267.18 C 775.772 1266.04 772.985 1266.99 771.465 1266.68 C 764.567 1266.08 762.391 1260.75 757.961 1257.68 C 757.961 1255.68 757.961 1253.68 757.961 1251.68 C 759.111 1250.49 758.141 1247.19 758.461 1245.18 C 758.461 1241.84 758.461 1238.51 758.461 1235.17 C 756.684 1226.36 765.152 1223.07 767.963 1217.17 C 771.151 1210.49 770.438 1204.28 773.465 1197.17 C 786.6 1187.46 799.252 1177.28 816.475 1171.66 C 822.459 1162.31 826.299 1150.81 833.479 1142.65 C 837.354 1139.19 841.022 1135.53 844.481 1131.65 Z" style="stroke-width: 1;"/>
    <path id="Dongjak-gu" class="gu-region" fill-rule="evenodd" clip-rule="evenodd" fill="#C8C8C8" d="M 450.891 1483.73 C 463.771 1485.54 476.957 1486.08 491.4 1485.23 C 497.07 1484.9 504.067 1485.89 508.904 1484.73 C 510.768 1484.76 512.067 1484.22 513.405 1483.73 C 519.91 1490.63 526.378 1498 532.91 1505.73 C 539.005 1512.95 545.801 1521.91 554.415 1526.24 C 562.105 1530.1 571.92 1529.26 582.421 1531.74 C 584.027 1538.3 585.06 1545.44 587.422 1551.24 C 594.156 1552.85 603.355 1551.98 610.427 1553.24 C 614.613 1561.06 618.142 1569.54 621.929 1577.75 C 617.712 1589.06 614.234 1603.13 612.427 1618.76 C 610.4 1636.31 610.491 1650.63 614.427 1663.77 C 606.708 1667.39 600.588 1672.6 587.422 1670.77 C 584.422 1670.77 581.421 1670.77 578.42 1670.77 C 574.142 1667.75 570.3 1664.37 565.918 1660.77 C 562.287 1657.79 556.161 1654.45 553.915 1650.27 C 550.382 1643.69 549.892 1634.12 547.914 1626.26 C 545.894 1618.24 543.529 1610.62 541.413 1602.76 C 528.906 1598.26 517.856 1592.31 504.404 1588.75 C 496.569 1588.75 488.734 1588.75 480.899 1588.75 C 476.062 1589.09 469.9 1588.09 465.896 1589.25 C 459.228 1589.25 452.56 1589.25 445.892 1589.25 C 440.389 1589.59 433.559 1588.59 428.888 1589.75 C 424.165 1593.87 423.829 1602.37 420.386 1607.76 C 412.154 1613.91 400.845 1610.62 390.879 1613.76 C 381.456 1616.73 374.212 1627.55 364.373 1627.26 C 365.589 1619.81 366.473 1612.03 367.873 1604.76 C 372.673 1601.61 375.492 1595.89 381.376 1593.26 C 390.197 1589.31 401.569 1589.42 411.883 1586.25 C 414.397 1577.29 419.996 1569.86 421.885 1560.75 C 423.656 1552.21 421.659 1543.69 423.385 1534.24 C 424.021 1530.76 426.714 1527.01 428.386 1523.24 C 434.982 1508.38 442.926 1494.6 450.891 1483.73 Z" style="stroke-width: 1;"/>
    <path id="Eunpyeong-gu" class="gu-region" fill-rule="evenodd" clip-rule="evenodd" fill="#C8C8C8" d="M 476.898 900.096 C 484.485 901.048 486.188 897.591 489.901 893.595 C 497.125 885.82 503.42 876.426 507.905 868.09 C 522.598 880.222 538.687 894.367 553.915 907.599 C 557.809 910.982 567.667 916.974 568.918 921.102 C 569.78 923.946 568.245 927.894 568.918 930.104 C 568.918 934.938 568.918 939.773 568.918 944.607 C 569.242 946.95 568.264 950.596 569.418 952.108 C 571.371 966.564 563.309 971.004 559.916 980.115 C 560.544 980.32 560.938 980.76 560.916 981.615 C 555.773 991.212 550.774 999.085 543.912 1006.62 C 540.875 1009.96 536.324 1013.01 534.91 1016.62 C 532.12 1023.75 533.033 1031.73 530.409 1040.63 C 529.257 1041.98 530.231 1045.45 529.909 1047.63 C 529.909 1051.3 529.909 1054.96 529.909 1058.63 C 529.909 1061.97 529.909 1065.3 529.909 1068.63 C 528.757 1069.98 529.731 1073.46 529.409 1075.63 C 529.409 1079.3 529.409 1082.97 529.409 1086.64 C 529.409 1090.8 529.409 1094.97 529.409 1099.14 C 519.5 1096.52 514.972 1099.49 508.904 1103.14 C 505.937 1104.93 502.266 1106.75 500.402 1108.64 C 493.593 1115.56 491.054 1127.61 488.399 1136.65 C 478.826 1140.58 469.387 1144.64 458.893 1147.65 C 455.91 1156 452.447 1163.88 447.391 1170.16 C 446.317 1171.08 443.727 1170.49 441.89 1170.66 C 438.717 1170.98 434.229 1170 431.888 1171.16 C 427.22 1171.16 422.553 1171.16 417.885 1171.16 C 412.548 1171.49 405.885 1170.49 401.381 1171.66 C 398.195 1171.3 397.086 1173.03 395.88 1174.66 C 393.837 1176.28 392.003 1178.11 390.379 1180.16 C 388.503 1181.62 386.836 1183.28 385.378 1185.16 C 385.378 1185.33 385.378 1185.49 385.378 1185.66 C 383.335 1187.28 381.502 1189.12 379.877 1191.16 C 378.003 1197.45 377.529 1205.15 376.376 1212.16 C 369.043 1207.63 362.647 1201.67 355.371 1196.16 C 348.325 1190.83 339.492 1186.45 333.866 1180.16 C 330.699 1176.61 329.682 1171.71 325.865 1168.65 C 315.993 1168.69 314.133 1160.72 309.862 1155.15 C 320.611 1160.24 335.328 1161.36 351.371 1161.15 C 357.107 1154.41 365.748 1146.81 371.376 1138.65 C 376.881 1130.66 380.801 1121.85 379.378 1107.64 C 379.378 1104.47 379.378 1101.31 379.378 1098.14 C 379.378 1090.97 379.378 1083.8 379.378 1076.63 C 379.047 1071.46 380.042 1064.97 378.878 1060.63 C 378.878 1050.3 378.878 1039.96 378.878 1029.62 C 381.199 1025.99 386.996 1024.2 388.38 1020.12 C 389.514 1016.78 389.005 1011.12 389.38 1006.62 C 391.959 975.65 394.396 941.121 397.382 912.098 C 408.898 912.53 421.637 912.647 431.89 913.098 C 435.584 913.261 439.89 914.483 443.393 913.098 C 450.639 910.232 449.761 895.512 462.397 899.595 C 463.09 900.736 465.878 899.782 467.398 900.095 C 470.563 900.096 473.73 900.096 476.898 900.096 Z" style="stroke-width: 1;"/>
    <path id="Gangbuk-gu" class="gu-region" fill-rule="evenodd" clip-rule="evenodd" fill="#C8C8C8" d="M 710.451 757.564 C 711.363 770.012 716.834 781.79 716.951 794.072 C 717.035 802.874 712.953 811.317 713.951 821.078 C 712.795 822.756 713.775 826.57 713.451 829.079 C 713.451 833.246 713.451 837.414 713.451 841.582 C 715.26 855.962 707.146 861.714 709.951 875.59 C 711.258 877.283 712.781 878.761 713.951 880.591 C 718.076 885.134 722.412 889.468 726.953 893.594 C 731.414 898.47 736.08 903.138 740.957 907.597 C 745.131 912.592 755.779 911.113 762.963 913.098 C 792.58 945.494 821.785 978.303 844.481 1017.62 C 835.276 1033.59 826.62 1050.11 817.975 1066.63 C 813.065 1069.22 808.977 1072.64 803.971 1075.13 C 800.965 1075.46 796.645 1074.48 794.469 1075.63 C 791.469 1075.63 788.469 1075.63 785.467 1075.63 C 781.967 1075.63 778.465 1075.63 774.965 1075.63 C 772.787 1075.96 769.313 1074.98 767.963 1076.13 C 764.963 1076.13 761.963 1076.13 758.961 1076.13 C 755.461 1076.13 751.959 1076.13 748.459 1076.13 C 745.959 1076.13 743.457 1076.13 740.957 1076.13 C 737.777 1074.15 733.893 1072.86 731.455 1070.13 C 727.182 1054.57 723.889 1038.03 719.453 1022.62 C 706.703 1011.95 692.92 1002.28 679.943 992.116 C 675.623 988.734 671.562 984.109 666.939 981.614 C 660.087 977.915 651.861 977.468 644.435 973.612 C 640.437 968.774 636.929 963.447 632.933 958.609 C 634.197 955.706 636.626 953.967 637.433 950.607 C 638.591 948.597 637.607 944.446 637.933 941.605 C 637.609 939.096 638.589 935.281 637.433 933.603 C 637.433 928.435 637.433 923.267 637.433 918.099 C 637.433 913.098 637.433 908.097 637.433 903.096 C 637.109 900.752 638.087 897.107 636.933 895.594 C 636.933 890.426 636.933 885.258 636.933 880.091 C 636.933 875.09 636.933 870.089 636.933 865.088 C 636.933 862.754 636.933 860.42 636.933 858.086 C 643.267 846.654 651.185 834.864 657.937 823.578 C 660.251 819.711 663.671 815.2 664.939 811.576 C 669.418 798.763 668.74 785.176 673.441 771.067 C 685.686 766.473 698.004 761.954 710.451 757.564 Z" style="stroke-width: 1;"/>
    <path id="Gangdong-gu" class="gu-region" fill-rule="evenodd" clip-rule="evenodd" fill="#C8C8C8" d="M 1070.53 1310.69 C 1076.27 1303.94 1083.91 1300.58 1092.54 1295.19 C 1101.47 1289.6 1106.71 1282.28 1119.04 1282.18 C 1129.71 1281.85 1141.71 1282.85 1151.55 1281.68 C 1170.08 1277.33 1180.96 1265.27 1195.56 1256.68 C 1204.33 1251.52 1215.56 1247.78 1224.07 1242.67 C 1224.07 1244.34 1224.07 1246.01 1224.07 1247.67 C 1224.39 1250.18 1223.41 1254 1224.57 1255.68 C 1224.31 1266.77 1235.59 1266.32 1241.57 1271.18 C 1243.09 1272.34 1246.73 1271.36 1249.07 1271.68 C 1250.16 1278.76 1250.56 1286.53 1253.58 1291.69 C 1251.64 1302.11 1242.64 1311.43 1244.07 1323.69 C 1244.51 1327.47 1249.13 1331.95 1250.07 1337.2 C 1251.22 1343.61 1249.37 1351.02 1250.58 1356.7 C 1251.34 1360.28 1254.99 1363.13 1255.58 1366.2 C 1252.88 1371.01 1250.56 1376.18 1247.57 1380.71 C 1233.51 1384.52 1220.47 1389.28 1204.06 1394.71 C 1197.34 1396.94 1190.14 1399.33 1182.56 1401.71 C 1176.33 1403.67 1163.85 1405.81 1161.05 1409.21 C 1158.85 1411.89 1159.34 1419.27 1159.05 1425.22 C 1158.78 1430.74 1158.94 1436.96 1158.55 1441.22 C 1158.06 1446.7 1154.3 1451.22 1151.55 1455.72 C 1144.31 1467.61 1138.36 1476.78 1131.05 1488.73 C 1125.76 1486.98 1121.95 1488.18 1117.54 1486.23 C 1112.9 1484.17 1110.88 1478.68 1106.54 1477.23 C 1100.54 1475.22 1093.56 1476.86 1085.54 1475.23 C 1080.91 1467.11 1080 1457.4 1075.03 1450.22 C 1070.97 1444.35 1063.2 1442.29 1059.53 1436.22 C 1064.69 1421.65 1076.02 1400.99 1066.53 1385.21 C 1062.71 1384.53 1058.64 1384.09 1054.03 1384.21 C 1050.73 1381.34 1048.54 1377.36 1045.53 1374.2 C 1049.57 1353.07 1050.14 1328.47 1064.03 1317.19 C 1066.41 1315.23 1068.57 1313.07 1070.53 1310.69 Z" style="stroke-width: 1;"/>
    <path id="Gangseo-gu" class="gu-region" fill-rule="evenodd" clip-rule="evenodd" fill="#C8C8C8" d="M 36.297 1100.14 C 50.483 1108.04 65.177 1117.62 77.806 1127.15 C 82.057 1130.36 87.265 1133.22 90.809 1136.65 C 95.041 1140.74 98.498 1146.83 102.311 1151.65 C 106.229 1156.61 109.732 1162.26 113.814 1166.66 C 120.374 1173.73 128.922 1178.83 135.319 1185.66 C 143.369 1194.26 148.221 1205.96 156.824 1214.67 C 163.198 1221.12 174.124 1224.8 182.83 1229.67 C 186.262 1231.59 189.76 1234.18 193.332 1236.17 C 197.202 1238.33 201.862 1239.77 204.834 1242.17 C 208.331 1245.01 211.22 1250.41 214.836 1254.68 C 218.476 1258.97 223.037 1262.74 225.338 1266.68 C 228.838 1272.67 230.307 1279.7 233.84 1285.18 C 239.436 1293.87 249.278 1300.45 256.845 1307.19 C 264.92 1314.38 273.545 1320.79 281.351 1328.19 C 283.607 1333.27 283.892 1340.32 284.352 1347.2 C 284.352 1347.53 284.352 1347.86 284.352 1348.2 C 278.35 1348.2 272.349 1348.2 266.348 1348.2 C 260.428 1346.45 255.397 1343.81 247.844 1343.7 C 244.001 1348.35 241.374 1354.23 237.842 1359.2 C 237.67 1369.7 236.345 1379.04 236.342 1389.71 C 230.828 1397.86 226.011 1406.72 221.339 1415.71 C 212.674 1417.42 204.981 1424.75 196.333 1425.21 C 192.982 1425.4 186.671 1423.48 182.83 1422.71 C 172.131 1420.58 162.601 1417.75 157.824 1410.71 C 155.845 1407.8 154.55 1402.73 152.823 1398.71 C 149.09 1390 145.711 1382.27 142.321 1374.2 C 140.467 1369.79 139.427 1364.68 137.32 1361.7 C 135.328 1358.88 129.449 1354.15 126.818 1353.7 C 120.756 1352.65 112.464 1356.57 106.813 1355.7 C 103.511 1360.9 100.749 1366.64 97.811 1372.2 C 89.241 1371.61 81.284 1371.31 72.806 1370.7 C 66.062 1370.22 53.695 1367.82 47.3 1369.2 C 42.275 1370.29 36.776 1379.4 33.297 1383.2 C 28.534 1388.41 24.204 1392.91 19.294 1397.21 C 16.618 1391.96 14.054 1387.12 11.792 1381.2 C 9.938 1376.35 8.26 1368.03 4.791 1364.7 C 2.265 1362.28 -4.481 1360.83 -8.712 1359.2 C -23.24 1353.59 -37.461 1348.08 -50.721 1342.7 C -51.22 1329.02 -56.36 1319.99 -60.723 1310.19 C -56.666 1304.89 -48.868 1305.77 -45.219 1300.19 C -43.553 1297.63 -43.585 1292.32 -42.719 1288.18 C -40.201 1276.16 -36.689 1262.98 -33.717 1252.67 C -28.22 1250.12 -22.685 1247.89 -16.213 1245.17 C -11.484 1243.19 -2.418 1241.11 0.29 1236.67 C 3.401 1231.57 2.855 1222.97 3.79 1215.67 C 4.733 1208.31 5.636 1200.98 6.291 1193.66 C 10.13 1190.09 14.087 1186.16 19.294 1181.66 C 25.774 1176.05 35.019 1172.22 32.297 1158.65 C 33.452 1156.98 32.472 1153.16 32.797 1150.65 C 34.673 1137.4 23.872 1125.59 26.796 1113.14 C 28.028 1107.89 34.211 1105.66 36.297 1100.14 Z" style="stroke-width: 1;"/>
    <path id="Geumcheon-gu" class="gu-region" fill-rule="evenodd" clip-rule="evenodd" fill="#C8C8C8" d="M 310.86 1632.26 C 320.915 1631.32 324.969 1624.37 332.865 1621.26 C 341.574 1625.22 350.65 1639.95 361.872 1632.76 C 363.808 1637.49 366.783 1641.19 368.873 1645.77 C 373.244 1647.73 377.791 1649.52 381.876 1651.77 C 381.763 1655.49 381.071 1658.63 381.376 1662.77 C 380.548 1663.47 380.548 1667.57 381.376 1668.27 C 382.641 1688.12 385.589 1710.61 387.878 1729.79 C 388.72 1736.84 388.563 1744.96 390.378 1750.29 C 392.337 1756.05 399.234 1760.71 400.88 1766.29 C 405.654 1767.52 409.71 1769.47 414.383 1770.8 C 415.588 1777.09 417.729 1782.45 419.384 1788.3 C 418.777 1790.86 416.226 1791.48 414.883 1793.3 C 398.509 1796.77 394.356 1812.45 389.877 1827.81 C 381.788 1828.47 375.156 1836.56 366.872 1837.81 C 356.876 1839.32 347.129 1835.25 335.365 1836.31 C 328.412 1809.44 319.236 1777.18 311.359 1748.29 C 309.356 1740.94 307.533 1723.48 302.357 1719.78 C 299.316 1717.61 292.936 1717.97 288.854 1717.78 C 285.959 1683.67 271.77 1660.85 262.348 1633.26 C 264.848 1633.26 267.349 1633.26 269.849 1633.26 C 272.858 1634.1 279.344 1634.1 282.352 1633.26 C 285.186 1633.26 288.02 1633.26 290.854 1633.26 C 292.703 1632.94 295.836 1633.91 296.856 1632.76 C 299.523 1632.76 302.19 1632.76 304.857 1632.76 C 306.706 1632.44 309.84 1633.41 310.86 1632.26 Z" style="stroke-width: 1;"/>
    <path id="Guro-gu" class="gu-region" fill-rule="evenodd" clip-rule="evenodd" fill="#C8C8C8" d="M 330.364 1609.76 C 330.681 1611.44 329.72 1614.4 330.864 1615.26 C 330.864 1616.26 330.864 1617.26 330.864 1618.26 C 323.85 1621.58 319.74 1627.81 310.36 1628.76 C 308.511 1629.08 305.378 1628.12 304.359 1629.26 C 301.692 1629.26 299.025 1629.26 296.357 1629.26 C 294.509 1629.58 291.375 1628.62 290.356 1629.76 C 287.522 1629.76 284.688 1629.76 281.854 1629.76 C 278.02 1629.76 274.186 1629.76 270.352 1629.76 C 267.282 1629.5 263.112 1630.33 260.85 1629.26 C 258.825 1620.88 262.351 1611.42 258.85 1604.76 C 257.467 1602.13 251.177 1599.18 248.848 1597.76 C 245.186 1595.51 240.606 1591.86 237.346 1591.75 C 234.529 1591.66 229.819 1594.48 227.344 1595.75 C 224.508 1597.21 220.193 1598.98 217.842 1600.76 C 215.425 1602.58 209.873 1609.77 208.84 1612.76 C 206.581 1619.29 209.306 1629.39 203.839 1631.76 C 201.13 1634.06 198.629 1636.56 196.337 1639.26 C 192.795 1642.39 189.46 1645.72 186.335 1649.27 C 185.245 1651.01 184.087 1652.69 182.334 1653.77 C 179.625 1656.06 177.124 1658.56 174.832 1661.27 C 171.29 1664.39 167.955 1667.73 164.83 1671.27 C 162.227 1674.04 160.806 1677.82 157.328 1678.77 C 151.237 1680.44 141.138 1679.65 135.323 1678.77 C 129.53 1677.9 124.967 1673.94 119.819 1673.77 C 109.449 1673.43 100.089 1679.22 90.813 1679.77 C 85.65 1680.08 81.106 1678.68 75.31 1678.27 C 81.237 1666.15 87.209 1652.21 93.314 1639.26 C 95.432 1634.78 99.307 1629.88 99.315 1625.76 C 99.327 1620.3 93.979 1612.82 90.813 1605.76 C 88.752 1601.16 82.227 1589.76 82.311 1585.75 C 82.355 1583.66 85.151 1579.18 86.812 1575.75 C 95.64 1557.51 105.407 1540.12 108.317 1518.74 C 108.028 1515.52 104.914 1515.14 103.816 1512.73 C 111.384 1513.5 118.342 1514.88 125.321 1516.24 C 127.593 1521.63 128.739 1528.15 132.322 1532.24 C 132.862 1533.07 136.784 1533.07 137.323 1532.24 C 140.823 1532.24 144.324 1532.24 147.825 1532.24 C 151.829 1531.91 157.155 1532.9 160.328 1531.74 C 165.959 1529.55 171.04 1523.3 176.832 1518.24 C 179.07 1516.28 182.028 1514.33 184.833 1511.73 C 189.191 1507.7 191.122 1503.33 198.336 1504.73 C 199.191 1505.88 202.153 1504.92 203.837 1505.23 C 208.004 1505.23 212.172 1505.23 216.34 1505.23 C 218.484 1512.76 221.405 1519.51 223.341 1527.24 C 228.316 1528.54 232.734 1533.09 238.844 1533.74 C 246.575 1534.56 255.094 1531.74 264.35 1532.74 C 265.87 1532.43 268.658 1533.38 269.351 1532.24 C 273.142 1530.03 275.902 1522.96 278.353 1517.74 C 280.826 1512.47 282.17 1506.89 285.355 1503.23 C 290.053 1505.31 293.986 1508.43 298.858 1511.23 C 302.61 1513.39 309.969 1515.51 312.361 1519.24 C 313.761 1521.42 314.432 1526.24 315.362 1529.74 C 318.325 1540.87 320.524 1552.62 321.863 1565.25 C 325.328 1569.95 330.994 1572.45 329.364 1582.25 C 329.681 1583.94 328.72 1586.9 329.864 1587.75 C 329.864 1590.59 329.864 1593.42 329.864 1596.25 C 330.181 1597.94 329.22 1600.9 330.364 1601.76 C 330.364 1604.42 330.364 1607.09 330.364 1609.76 Z" style="stroke-width: 1;"/>
    <path id="Gwanak-gu" class="gu-region" fill-rule="evenodd" clip-rule="evenodd" fill="#C8C8C8" d="M 595.424 1780.3 C 590.959 1784.78 585.934 1789.63 580.421 1794.8 C 575.516 1799.4 570.638 1805.43 564.917 1809.3 C 559.338 1813.08 552.225 1816.11 544.913 1820.31 C 538.321 1824.09 531.241 1830.58 524.909 1831.81 C 520.305 1832.7 514.788 1832.14 509.905 1832.31 C 504.947 1832.48 499.683 1832.6 494.402 1832.81 C 486.04 1833.14 471.097 1835.12 463.395 1833.81 C 457.345 1832.78 452.983 1826.56 446.892 1824.31 C 442.682 1817.98 443.362 1804.1 438.39 1799.3 C 433.842 1794.91 425.734 1797.24 418.885 1794.3 C 427.11 1788.71 417.983 1777.09 416.885 1768.79 C 412.953 1766.56 408.302 1765.04 403.382 1763.79 C 401.555 1758.63 395.016 1753.9 393.38 1748.29 C 391.806 1742.9 391.747 1734.92 390.88 1727.78 C 390.066 1721.08 389.203 1714.06 388.38 1707.28 C 385.819 1686.19 384.48 1667.39 384.379 1649.27 C 380.315 1646.99 375.792 1645.18 371.376 1643.27 C 369.295 1639.18 366.574 1635.73 364.875 1631.26 C 375.996 1629.89 383.782 1619.24 392.381 1616.76 C 403.485 1613.55 415.031 1616.95 423.388 1609.76 C 425.629 1604.33 427.509 1598.54 429.89 1593.25 C 435.891 1593.25 441.892 1593.25 447.894 1593.25 C 452.564 1592.92 458.559 1593.92 462.397 1592.75 C 469.065 1592.75 475.734 1592.75 482.402 1592.75 C 490.57 1592.75 498.739 1592.75 506.908 1592.75 C 517.768 1596.9 528.768 1600.9 538.915 1605.76 C 542.995 1621.35 547.109 1636.9 550.918 1652.77 C 559.791 1659.9 568.329 1667.36 577.424 1674.27 C 580.098 1675.43 584.921 1674.44 588.427 1674.77 C 590.275 1674.45 593.408 1675.42 594.428 1674.27 C 604.325 1675.67 608.522 1668.7 614.432 1667.77 C 612.844 1681.4 616.239 1688.43 620.434 1696.78 C 627.955 1711.74 635.823 1729.09 644.44 1740.29 C 640.702 1741.22 636.264 1741.45 632.938 1742.79 C 620.221 1755.08 607.719 1767.59 595.424 1780.3 Z" style="stroke-width: 1;"/>
    <path id="Gwangjin-gu" class="gu-region" fill-rule="evenodd" clip-rule="evenodd" fill="#C8C8C8" d="M 869.986 1440.72 C 872.302 1426.2 877.183 1414.24 877.488 1397.71 C 886.31 1385.85 895.744 1375.9 901.494 1360.7 C 907.324 1345.28 907.74 1327.06 912.496 1309.69 C 914.68 1301.71 919.307 1294.01 922.498 1286.18 C 925.879 1277.9 928.254 1269.43 932.5 1262.68 C 945.557 1260.3 958.996 1263.4 970.51 1260.18 C 980.881 1257.28 989.783 1246.59 1005.02 1249.67 C 1008.66 1248.86 1006.39 1253.97 1007.02 1256.18 C 1005.18 1264.78 994.76 1271.39 994.016 1280.18 C 993.567 1285.48 998.161 1292.02 999.516 1297.69 C 1001.56 1306.23 999.268 1316.22 1005.02 1321.69 C 1007.18 1321.69 1009.35 1321.69 1011.52 1321.69 C 1013.2 1322.85 1017.01 1321.87 1019.52 1322.19 C 1022.36 1322.19 1025.19 1322.19 1028.02 1322.19 C 1025.36 1328.73 1023.71 1334.8 1022.52 1342.2 C 1021.41 1349.14 1021.21 1357.61 1019.02 1364.7 C 1016.97 1371.35 1011.52 1379.93 1007.52 1387.71 C 1003.56 1395.4 997.62 1401.85 993.016 1407.71 C 988.28 1413.74 982.891 1419.85 977.512 1426.72 C 972.893 1432.61 967.157 1443.16 962.008 1445.72 C 955.09 1449.16 945.914 1449.28 937.002 1449.72 C 934.668 1449.72 932.334 1449.72 930 1449.72 C 926.666 1449.72 923.332 1449.72 919.998 1449.72 C 918.478 1450.04 915.689 1449.08 914.996 1450.22 C 896.516 1450.53 881.684 1447.19 869.986 1440.72 Z" style="stroke-width: 1;"/>
    <path id="Gangnam-gu" class="gu-region" fill-rule="evenodd" clip-rule="evenodd" fill="#C8C8C8" d="M 710.951 1454.72 C 714.295 1451.21 718.115 1448.56 721.953 1445.22 C 725.533 1442.11 728.797 1437.29 732.955 1435.72 C 736.1 1434.53 741.426 1434.42 745.459 1433.72 C 755.58 1431.96 763.076 1431.55 774.465 1432.22 C 790.457 1433.16 800.528 1435.39 811.473 1440.22 C 837.92 1451.89 859.084 1472.99 889.991 1476.23 C 891.079 1478.81 890.218 1483.34 890.493 1486.73 C 890.493 1490.06 890.493 1493.4 890.493 1496.73 C 890.813 1498.74 889.843 1502.05 890.993 1503.23 C 890.993 1506.07 890.993 1508.9 890.993 1511.74 C 890.993 1515.07 890.993 1518.4 890.993 1521.74 C 891.311 1523.59 890.345 1526.72 891.493 1527.74 C 890.37 1537.45 894.007 1540.8 896.993 1546.74 C 898.985 1550.71 900.22 1555.32 901.995 1557.75 C 904.112 1560.64 909.284 1563.79 912.997 1566.75 C 916.911 1569.87 920.421 1573.41 924.501 1575.75 C 928.517 1578.06 933.702 1579.84 938.503 1582.25 C 943.138 1584.58 947.718 1588.01 952.007 1589.25 C 964.214 1592.81 979.751 1592.7 991.515 1596.26 C 994.078 1599.53 997.447 1601.99 1000.02 1605.26 C 1001.41 1609.53 1002.26 1614.35 1004.02 1618.26 C 1013.61 1625.34 1024.7 1630.92 1034.03 1638.27 C 1034.9 1644.61 1036.08 1650.51 1037.03 1656.27 C 1038.01 1662.27 1038.07 1668.98 1040.03 1674.27 C 1041.12 1677.22 1044.41 1681.11 1046.53 1684.28 C 1056.03 1698.47 1065.61 1712.07 1071.54 1728.79 C 1065.99 1730.75 1057.28 1728.17 1051.53 1730.79 C 1046.58 1733.04 1045.52 1741.73 1041.53 1746.79 C 1039.47 1749.39 1034.05 1753.71 1030.53 1754.79 C 1024.78 1756.55 1017.97 1755.02 1012.52 1756.29 C 1008.25 1757.29 1005.43 1761.03 1001.52 1761.79 C 997.167 1762.64 992.472 1760.83 986.515 1761.29 C 981.56 1756.99 979.495 1750.97 974.011 1746.29 C 969.708 1742.62 963.54 1740.94 959.509 1737.29 C 956.902 1734.92 950.372 1725.76 949.005 1721.79 C 949.005 1719.12 949.005 1716.45 949.005 1713.78 C 948.692 1712.26 949.646 1709.47 948.505 1708.78 C 948.894 1704.39 947.773 1701.51 948.005 1697.28 C 943.612 1694.43 940.413 1689.78 935.003 1687.78 C 920.058 1682.25 901.278 1688.3 888.991 1693.78 C 884.454 1701.08 880.466 1708.92 874.989 1715.28 C 858.663 1715.63 846.708 1720.34 834.479 1724.79 C 821.721 1707.2 819.342 1679.24 813.475 1654.77 C 808.514 1649.39 803.346 1644.22 797.971 1639.27 C 791.196 1636.04 782.989 1634.24 777.965 1629.26 C 775.674 1626.55 773.174 1624.05 770.465 1621.76 C 770.287 1621.11 769.584 1620.97 769.463 1620.26 C 767.338 1617.72 765.006 1615.38 762.463 1613.26 C 755.233 1605.68 755.656 1590.05 754.461 1574.75 C 753.852 1566.96 754.504 1557.9 752.459 1551.74 C 750.26 1545.12 739.537 1540.73 736.957 1533.74 C 734.945 1528.29 735.008 1520.64 733.955 1514.24 C 732.83 1507.38 732.215 1499.3 730.455 1493.73 C 728.307 1486.94 723.5 1480.79 720.453 1474.73 C 716.998 1467.86 714.063 1461.28 710.951 1454.72 Z" style="stroke-width: 1;"/>
    <path id="Jongno-gu" class="gu-region" fill-rule="evenodd" clip-rule="evenodd" fill="#C8C8C8" d="M 621.43 1251.68 C 607.787 1260.37 591.921 1266.84 573.919 1271.18 C 567.502 1265.43 560.664 1260.1 554.915 1253.68 C 553.29 1251.63 551.457 1249.8 549.414 1248.18 C 544.918 1243.51 540.301 1235.39 540.412 1228.17 C 540.471 1224.33 542.902 1218.72 544.413 1213.67 C 547.419 1203.62 550.557 1194.77 553.415 1185.16 C 554.903 1180.16 557.225 1174.58 557.416 1170.16 C 557.7 1163.59 555.372 1156.58 553.915 1150.65 C 552.471 1144.78 550.653 1139.15 548.914 1132.65 C 543.479 1129.92 537.068 1128.16 532.41 1124.65 C 532.41 1123.98 532.41 1123.32 532.41 1122.65 C 533.563 1121.3 532.587 1117.83 532.91 1115.65 C 532.91 1111.98 532.91 1108.31 532.91 1104.65 C 532.91 1101.31 532.91 1097.98 532.91 1094.64 C 534.062 1093.3 533.087 1089.82 533.41 1087.64 C 533.41 1083.97 533.41 1080.31 533.41 1076.64 C 533.41 1073.31 533.41 1069.97 533.41 1066.64 C 534.562 1065.29 533.587 1061.81 533.91 1059.64 C 533.91 1055.97 533.91 1052.3 533.91 1048.63 C 534.818 1035.98 534.628 1025.96 538.411 1017.63 C 541.628 1010.54 550.256 1005.89 554.915 999.123 C 558.26 994.265 559.414 989.479 562.917 984.62 C 575.092 983.459 585.233 980.264 597.425 979.119 C 601.677 983.869 607.409 987.139 612.928 990.621 C 619.869 1007.38 621.444 1024.94 626.432 1042.63 C 631.479 1060.54 643.168 1076.17 643.436 1098.14 C 640.569 1103.95 638.151 1110.2 635.434 1116.15 C 630.166 1118.05 624.916 1119.97 619.93 1122.15 C 619.133 1128.88 617.076 1136.93 617.93 1143.65 C 627.776 1152.5 645.379 1150.5 660.44 1154.66 C 668.114 1156.78 673.823 1161.03 680.444 1162.66 C 691.606 1184.84 699.85 1209.93 715.452 1227.67 C 728.628 1228.67 742.175 1229.29 754.962 1230.67 C 754.962 1231.84 754.962 1233.01 754.962 1234.17 C 753.802 1236.52 754.79 1241 754.462 1244.18 C 754.462 1248.51 754.462 1252.85 754.462 1257.18 C 750.128 1257.18 745.792 1257.18 741.458 1257.18 C 739.61 1257.5 736.476 1256.53 735.456 1257.68 C 732.29 1257.68 729.122 1257.68 725.954 1257.68 C 724.106 1258 720.974 1257.03 719.954 1258.18 C 716.952 1258.18 713.952 1258.18 710.952 1258.18 C 708.938 1258.5 705.634 1257.53 704.45 1258.68 C 691.721 1259.62 681.311 1262.88 668.942 1264.18 C 660.606 1264.18 652.27 1264.18 643.936 1264.18 C 638.977 1260.31 635.647 1254.8 629.932 1251.68 C 628.248 1250.85 623.113 1250.85 621.43 1251.68 Z" style="stroke-width: 1;"/>
    <path id="Jung-gu" class="gu-region" fill-rule="evenodd" clip-rule="evenodd" fill="#C8C8C8" d="M 753.461 1292.19 C 749.615 1299.68 746.32 1307.72 739.957 1312.69 C 737.08 1315.15 734.414 1317.82 731.955 1320.69 C 731.551 1320.79 731.457 1321.19 730.955 1321.19 C 728.656 1323.39 725.92 1325.16 724.453 1328.19 C 720.408 1339.65 714.814 1349.56 709.951 1360.2 C 702.033 1357.12 696.883 1351.26 688.445 1348.7 C 687.425 1347.55 684.293 1348.52 682.443 1348.2 C 679.443 1348.2 676.443 1348.2 673.441 1348.2 C 672.421 1347.05 669.289 1348.02 667.441 1347.7 C 649.607 1350.36 647.511 1337.29 637.933 1331.69 C 635.591 1330.54 631.103 1331.52 627.931 1331.19 C 625.587 1331.52 621.943 1330.54 620.429 1331.69 C 617.095 1331.69 613.761 1331.69 610.427 1331.69 C 607.751 1332.02 603.768 1331.04 601.925 1332.19 C 588.398 1333.34 574.619 1334.23 561.415 1335.7 C 558.395 1322.38 554.126 1310.31 549.413 1298.69 C 558.597 1291.37 568.913 1285.18 574.418 1274.18 C 587.26 1270.9 599.057 1267.87 609.927 1262.18 C 616.556 1258.71 619.048 1253.93 629.431 1255.18 C 633.39 1259.55 637.558 1263.72 641.935 1267.68 C 666.119 1270.85 684.234 1263.65 705.449 1262.18 C 707.297 1261.86 710.431 1262.83 711.451 1261.68 C 714.451 1261.68 717.451 1261.68 720.453 1261.68 C 722.465 1261.36 725.771 1262.33 726.953 1261.18 C 729.955 1261.18 732.955 1261.18 735.957 1261.18 C 737.969 1260.86 741.273 1261.83 742.457 1260.68 C 745.459 1260.68 748.459 1260.68 751.459 1260.68 C 752.293 1260.68 753.127 1260.68 753.961 1260.68 C 753.961 1263.51 753.961 1266.35 753.961 1269.18 C 753.961 1272.18 753.961 1275.18 753.961 1278.18 C 752.813 1279.2 753.779 1282.34 753.461 1284.19 C 753.461 1286.85 753.461 1289.52 753.461 1292.19 Z" style="stroke-width: 1;"/>
    <path id="Jungnang-gu" class="gu-region" fill-rule="evenodd" clip-rule="evenodd" fill="#C8C8C8" d="M 1021.52 1043.63 C 1026.18 1051.47 1039.85 1050.31 1048.53 1054.13 C 1046.24 1066.2 1059.83 1069.96 1061.53 1078.64 C 1063.31 1087.69 1056.87 1093.55 1056.03 1102.64 C 1051.71 1106.82 1046.5 1110.11 1043.03 1115.14 C 1043.03 1115.48 1043.03 1115.81 1043.03 1116.14 C 1042.19 1119.98 1042.19 1127.31 1043.03 1131.15 C 1043.75 1135.09 1046.46 1137.05 1047.53 1140.65 C 1047.53 1143.98 1047.53 1147.32 1047.53 1150.65 C 1036.92 1158.08 1044.41 1170.86 1041.03 1183.16 C 1039.3 1189.44 1025.28 1197.87 1022.02 1203.66 C 1020.46 1206.44 1020.66 1210.03 1019.52 1212.16 C 1016.07 1218.64 1003.99 1222.61 1003.02 1229.67 C 1002.52 1233.31 1005.68 1235.85 1007.02 1238.67 C 1007.02 1241.01 1007.02 1243.34 1007.02 1245.67 C 1006.29 1245.95 1004.43 1245.09 1004.52 1246.17 C 988.127 1243.27 980.61 1254.43 968.51 1257.17 C 956.697 1259.85 945.844 1256.91 932 1259.67 C 927.314 1196.68 915.818 1140.49 916.498 1072.13 C 928.309 1066.9 939.541 1060.64 951.506 1054.63 C 957.539 1051.59 962 1048.68 971.01 1049.13 C 972.694 1048.81 975.655 1049.77 976.512 1048.63 C 979.178 1048.63 981.846 1048.63 984.514 1048.63 C 986.198 1048.31 989.159 1049.27 990.014 1048.13 C 992.682 1048.13 995.348 1048.13 998.016 1048.13 C 999.7 1047.81 1002.66 1048.77 1003.52 1047.63 C 1011.64 1048.42 1016.02 1045.46 1021.52 1043.63 Z" style="stroke-width: 1;"/>
    <path id="Mapo-gu" class="gu-region" fill-rule="evenodd" clip-rule="evenodd" fill="#C8C8C8" d="M 304.358 1153.15 C 310.986 1159.19 310.934 1171.92 324.362 1171.16 C 330.33 1184.56 341.955 1190.39 353.369 1199.16 C 360.726 1204.82 368.737 1209.93 375.374 1215.67 C 388.046 1226.62 397.628 1241.58 408.882 1251.68 C 414.472 1256.69 421.41 1260.63 426.886 1266.18 C 429.178 1268.89 431.678 1271.39 434.388 1273.68 C 434.889 1273.68 434.983 1274.09 435.388 1274.18 C 437.846 1277.06 440.514 1279.72 443.39 1282.18 C 445.682 1284.89 448.182 1287.39 450.891 1289.68 C 451.392 1289.68 451.486 1290.09 451.891 1290.18 C 454.183 1292.89 456.683 1295.39 459.392 1297.69 C 461.594 1299.99 463.36 1302.72 466.393 1304.19 C 479.544 1305.87 499.541 1307.62 514.404 1309.19 C 520.078 1309.79 526.353 1311.57 530.407 1310.69 C 536.846 1309.29 539.715 1301.06 546.411 1300.19 C 547.991 1306.11 551.404 1311.6 553.412 1317.69 C 555.028 1322.59 558.519 1333.12 558.413 1337.7 C 558.307 1342.3 553.43 1356.96 551.911 1360.7 C 546.879 1373.12 538.571 1382.4 530.906 1391.71 C 520.593 1404.24 508.095 1416.14 496.898 1425.72 C 493.989 1423.26 491.865 1420.09 488.897 1417.71 C 485.891 1415.31 482.897 1413.06 479.895 1410.71 C 474.054 1406.15 468.241 1400.94 461.891 1397.21 C 441.952 1385.48 420.472 1377.72 398.877 1369.7 C 388.766 1365.95 378.332 1360.37 367.87 1355.2 C 357.737 1350.19 346.24 1345.98 337.363 1340.2 C 330.659 1335.83 324.054 1328.49 317.359 1322.69 C 300.324 1307.93 283.778 1294.11 267.348 1279.18 C 264.06 1276.2 259.417 1272.95 257.346 1270.18 C 253.447 1264.97 252.43 1257.63 249.344 1252.18 C 246.535 1247.21 241.503 1242.03 237.342 1237.17 C 230.501 1229.19 225.07 1220.99 215.837 1216.67 C 215.837 1216.5 215.837 1216.34 215.837 1216.17 C 224.12 1213.44 232.321 1201.01 240.842 1199.16 C 249.983 1197.19 259.504 1199.97 270.349 1198.16 C 273.823 1194.89 277.827 1191.06 281.851 1186.66 C 284.914 1183.32 291.234 1177.85 292.353 1174.16 C 293.061 1171.82 292.195 1169.24 292.853 1167.16 C 294.82 1160.93 300.979 1158.57 304.358 1153.15 Z" style="stroke-width: 1;"/>
    <path id="Nowon-gu" class="gu-region" fill-rule="evenodd" clip-rule="evenodd" fill="#C8C8C8" d="M 985.014 875.09 C 984.504 879.627 981.352 880.703 980.512 885.092 C 979.737 889.142 980.774 903.601 982.012 908.097 C 982.897 911.305 988.805 922.74 991.014 924.101 C 996.981 927.773 1007.07 925.504 1014.52 927.101 C 1022.63 928.839 1029.45 932.668 1036.53 934.602 C 1039.27 945.829 1036.76 955.368 1039.53 965.109 C 1041.66 972.654 1049.32 977.692 1046.53 989.115 C 1043.35 993.605 1041.22 999.148 1037.53 1003.12 C 1032.93 1004.78 1028.78 1003.63 1025.02 1005.62 C 1021.9 1007.27 1017.04 1015.02 1016.52 1019.62 C 1015.77 1026.25 1018.79 1032.22 1022.52 1036.13 C 1021.81 1037.41 1020.91 1038.51 1021.02 1040.63 C 1015.14 1042.08 1010.83 1045.11 1002.52 1044.13 C 1000.83 1044.44 997.872 1043.48 997.016 1044.63 C 994.348 1044.63 991.682 1044.63 989.014 1044.63 C 987.33 1044.94 984.369 1043.98 983.512 1045.13 C 980.846 1045.13 978.178 1045.13 975.51 1045.13 C 973.826 1045.44 970.865 1044.48 970.01 1045.63 C 957.799 1045.83 948.197 1053.01 939.002 1057.63 C 930.479 1061.92 922.461 1065.15 914.996 1069.63 C 903.424 1066.7 891.293 1064.33 879.988 1061.13 C 862.867 1038.58 845.127 1013.98 831.478 989.615 C 838.123 989.093 845.572 989.374 851.482 988.115 C 854.638 978.686 853.101 967.741 854.982 958.608 C 856.394 951.754 860.927 944.666 862.484 937.103 C 864.724 926.233 864.32 912.586 865.486 900.094 C 866.019 894.361 866.927 888.183 867.486 882.09 C 868.023 876.214 869.218 869.347 868.486 864.586 C 867.443 857.813 863.203 850.571 860.484 843.581 C 857.896 836.93 853.252 829.037 852.482 822.576 C 852.041 818.864 853.462 814.153 853.982 809.573 C 854.464 805.323 854.164 800.545 854.982 796.57 C 857.123 786.178 863.988 775.222 866.486 763.562 C 868.656 753.437 866.896 741.851 869.486 733.055 C 875.244 723.888 885.228 724.501 895.992 718.552 C 899.533 716.595 904.971 712.408 907.996 709.55 C 911.117 706.599 913.641 701.146 916.498 700.048 C 919.73 698.804 926.797 698.319 930.5 699.048 C 933.574 699.653 937.023 703.877 940.502 706.55 C 948.418 712.631 953.609 716.323 961.008 722.053 C 964.428 724.703 967.885 728.715 971.01 730.055 C 979.442 733.671 986.594 731.737 996.516 735.556 C 1000.82 750.992 994.508 755.111 988.514 764.062 C 985.289 768.879 980.098 774.724 980.012 779.565 C 979.934 783.974 985.442 793.06 987.514 796.069 C 990.86 800.927 999.871 807.372 1001.52 813.073 C 1003.79 820.967 1001.05 828.157 1003.02 839.079 C 999.725 843.825 987.35 845.884 985.014 851.082 C 983.205 855.104 985.301 860.494 984.514 867.085 C 984.838 869.598 983.858 873.412 985.014 875.09 Z" style="stroke-width: 1;"/>
    <path id="Seocho-gu" class="gu-region" fill-rule="evenodd" clip-rule="evenodd" fill="#C8C8C8" d="M 707.949 1457.72 C 712.785 1470.07 723.291 1481.37 727.455 1495.23 C 729.24 1501.18 729.84 1508.68 730.955 1515.24 C 732.115 1522.06 731.57 1530.16 733.955 1535.74 C 736.898 1542.63 747.369 1546.83 749.459 1553.24 C 751.561 1559.7 750.346 1569.21 750.959 1577.25 C 752.234 1593.97 752.994 1609.85 761.963 1618.26 C 764.088 1620.8 766.42 1623.14 768.963 1625.26 C 771.256 1627.97 773.756 1630.47 776.465 1632.76 C 781.617 1637.12 789.619 1638.62 795.469 1642.27 C 800.262 1647.48 805.264 1652.48 810.473 1657.27 C 816.672 1682.25 819.059 1711.03 832.979 1728.29 C 845.557 1724.52 860.563 1718.87 877.489 1717.78 C 879.985 1714.55 882.339 1711.4 884.991 1707.28 C 887.116 1703.98 888.464 1698.75 891.993 1696.28 C 899.909 1690.73 922.458 1685.91 934.503 1690.78 C 938.245 1692.29 940.179 1696.48 943.505 1697.78 C 944.677 1698.61 944.587 1700.7 944.505 1702.78 C 944.818 1704.3 943.864 1707.09 945.005 1707.78 C 945.005 1709.95 945.005 1712.12 945.005 1714.28 C 945.329 1716.79 944.349 1720.61 945.505 1722.29 C 945.505 1722.95 945.505 1723.62 945.505 1724.29 C 949.073 1729.72 953.589 1734.2 957.007 1739.79 C 967.921 1745.21 976.614 1752.86 983.013 1762.8 C 977.536 1766.17 965.337 1765.61 962.009 1770.8 C 959.474 1774.75 962.257 1779.56 961.509 1784.8 C 960.72 1790.33 955.751 1795.35 956.007 1800.3 C 949.722 1802.02 940.163 1800.46 936.503 1804.8 C 933.614 1813.03 933.335 1820.96 926.001 1824.81 C 921.409 1827.22 911.769 1828.37 905.495 1829.81 C 899.561 1831.18 888.366 1832.04 885.491 1835.31 C 882.063 1839.21 882.557 1848.65 881.491 1854.32 C 880.155 1861.38 878.661 1867.15 876.989 1872.82 C 870.321 1872.82 863.653 1872.82 856.985 1872.82 C 848.729 1872.24 842.155 1869.98 833.979 1869.32 C 823.985 1863.01 812.311 1854.78 801.471 1847.81 C 797.573 1845.31 789.073 1842.96 790.469 1837.31 C 791.301 1835.46 791.301 1830.16 790.469 1828.31 C 787.891 1811.71 782.86 1797.58 778.967 1782.3 C 778.967 1780.46 778.967 1778.63 778.967 1776.8 C 778.967 1775.13 778.967 1773.46 778.967 1771.8 C 778.967 1765.96 778.967 1760.13 778.967 1754.29 C 780.123 1752.45 779.141 1748.46 779.467 1745.79 C 779.137 1742.12 780.127 1737.13 778.967 1734.29 C 779.66 1725.36 770.758 1726.65 763.963 1725.29 C 757.924 1724.07 753.576 1721.55 748.459 1722.29 C 743.801 1722.96 737.016 1729.12 731.955 1732.29 C 726.535 1735.68 719.566 1738.67 715.451 1742.29 C 708.324 1748.56 704.049 1758.4 698.447 1762.8 C 693.728 1763.62 685.662 1763.62 680.943 1762.8 C 675.293 1757.68 679.798 1748.25 678.443 1740.79 C 677.709 1736.74 671.226 1729.82 668.441 1728.79 C 666.234 1727.97 659.675 1727.11 655.437 1728.79 C 651.257 1730.44 651.302 1735.45 647.435 1738.29 C 635.154 1722.9 628.027 1702.35 618.429 1684.28 C 618.097 1677.61 619.093 1669.61 617.929 1663.77 C 613.228 1648.55 613.829 1634.34 616.429 1616.26 C 617.816 1606.61 618.96 1596.77 620.929 1589.25 C 621.997 1585.18 625.093 1581.15 624.931 1577.25 C 624.728 1572.41 620.714 1567.68 618.929 1563.75 C 616.71 1558.87 615.22 1554.71 612.927 1550.24 C 605.847 1549.16 598 1548.84 589.922 1548.74 C 588.36 1543.3 586.998 1537.66 585.921 1531.74 C 605.811 1531.23 621.859 1533.01 635.933 1527.24 C 642.492 1524.55 649.288 1516.42 654.937 1511.23 C 673.865 1493.86 692.151 1475.77 707.949 1457.72 Z" style="stroke-width: 1;"/>
    <path id="Seodaemun-gu" class="gu-region" fill-rule="evenodd" clip-rule="evenodd" fill="#C8C8C8" d="M 553.415 1257.18 C 558.807 1263.12 565.759 1267.51 570.919 1273.68 C 561.883 1289.82 542.861 1295.97 529.41 1307.69 C 515.837 1306.19 499.244 1304.29 483.899 1302.69 C 474.93 1301.75 467.087 1302.53 463.395 1296.69 C 460.937 1293.81 458.27 1291.14 455.393 1288.68 C 453.101 1285.97 450.601 1283.47 447.892 1281.18 C 447.487 1281.09 447.393 1280.68 446.892 1280.68 C 444.433 1277.81 441.766 1275.14 438.89 1272.68 C 436.598 1269.97 434.098 1267.47 431.388 1265.18 C 418.208 1256.46 405.903 1243.28 394.88 1231.17 C 390.811 1226.7 380.363 1219.33 379.377 1214.17 C 378.877 1211.55 381.069 1197.49 382.377 1194.16 C 383.294 1191.83 385.326 1190.5 386.878 1189.16 C 388.754 1187.7 390.421 1186.04 391.879 1184.16 C 391.879 1183.99 391.879 1183.83 391.879 1183.66 C 393.922 1182.04 395.755 1180.2 397.38 1178.16 C 398.658 1176.61 399.49 1174.6 402.881 1175.16 C 408.383 1175.16 413.884 1175.16 419.385 1175.16 C 422.558 1174.83 427.046 1175.82 429.387 1174.66 C 435.874 1174.81 441.978 1174.58 447.891 1174.16 C 454.217 1167.98 458.279 1159.54 461.394 1150.15 C 472.283 1147.54 481.125 1142.88 490.901 1139.15 C 493.404 1128.49 497.363 1119.28 502.403 1111.15 C 510.679 1107.33 515.889 1099.24 529.409 1102.14 C 529.409 1102.64 529.409 1103.14 529.409 1103.64 C 528.248 1106.32 529.238 1111.14 528.909 1114.65 C 528.909 1118.48 528.909 1122.32 528.909 1126.15 C 533.295 1130.6 540.61 1132.12 546.413 1135.15 C 549.358 1146.38 552.195 1157.71 554.415 1169.66 C 550.112 1182.88 545.879 1198.65 541.412 1213.67 C 539.884 1218.8 536.987 1223.97 536.911 1228.17 C 536.796 1234.53 541.255 1239.89 542.412 1246.18 C 544.037 1248.22 545.87 1250.05 547.913 1251.68 C 549.538 1253.72 551.372 1255.55 553.415 1257.18 Z" style="stroke-width: 1;"/>
    <path id="Seongbuk-gu" class="gu-region" fill-rule="evenodd" clip-rule="evenodd" fill="#C8C8C8" d="M 630.932 961.61 C 635.707 965.038 637.518 973.138 642.436 976.613 C 648.87 981.16 658.233 980.723 665.44 984.615 C 669.85 986.996 674.129 991.303 678.444 994.617 C 691.571 1004.7 704.76 1015.22 716.952 1025.12 C 720.673 1041.08 724.77 1056.65 728.456 1072.63 C 734.647 1075.94 738.686 1081.41 749.46 1080.14 C 752.962 1080.14 756.462 1080.14 759.962 1080.14 C 761.976 1079.82 765.28 1080.79 766.464 1079.64 C 769.632 1079.64 772.8 1079.64 775.966 1079.64 C 779.468 1079.64 782.968 1079.64 786.468 1079.64 C 788.482 1079.32 791.786 1080.29 792.97 1079.14 C 807.4 1081.06 811.841 1073 820.476 1069.13 C 828.822 1052.64 837.642 1036.62 846.482 1020.62 C 851.662 1027.14 856.423 1034.68 861.986 1042.63 C 865.636 1047.84 873.004 1061.24 878.49 1064.13 C 888.16 1069.24 901.922 1067.63 912.998 1073.13 C 912.998 1075.47 912.998 1077.8 912.998 1080.14 C 911.832 1087.97 912.83 1097.97 912.498 1106.64 C 888.432 1114.58 857.568 1115.73 840.482 1130.65 C 836.605 1134.11 832.937 1137.77 829.478 1141.65 C 823.744 1150.25 819.421 1160.27 813.976 1169.16 C 799.685 1173.98 791.169 1179.91 780.468 1188.16 C 777.05 1190.79 772.261 1192.7 770.466 1195.66 C 767.394 1200.72 767.864 1209.55 764.964 1215.67 C 763.835 1218.05 757.034 1226.62 754.962 1227.17 C 749.89 1228.52 742.519 1226.1 736.458 1225.67 C 730.251 1225.22 724.11 1224.83 717.452 1224.67 C 701.534 1207.08 694.393 1180.71 681.944 1159.65 C 674.885 1158.19 669.174 1153.2 660.94 1151.15 C 646.53 1147.58 629.981 1149.26 620.93 1141.65 C 621.215 1135.43 622.16 1129.88 622.93 1124.15 C 628.246 1122.63 632.938 1120.48 637.934 1118.64 C 639.891 1111.02 645.612 1105.81 646.436 1098.14 C 648 1083.6 641.373 1072.12 637.434 1061.63 C 635.084 1055.38 631.93 1048.78 629.932 1042.13 C 624.35 1023.54 622.356 1004.17 615.93 988.615 C 611.086 985.122 605.15 982.723 601.426 978.112 C 607.977 976.31 614.6 979.06 619.43 977.112 C 625.592 974.628 625.967 965.16 630.932 961.61 Z" style="stroke-width: 1;"/>
    <path id="Seongdong-gu" class="gu-region" fill-rule="evenodd" clip-rule="evenodd" fill="#C8C8C8" d="M 775.965 1270.68 C 778.133 1270.68 780.299 1270.68 782.467 1270.68 C 787.785 1267.5 786.69 1257.9 796.971 1259.68 C 797.664 1260.82 800.451 1259.87 801.971 1260.18 C 811.397 1260.09 820.016 1260.81 828.977 1261.18 C 831.532 1268.46 833.719 1276.11 835.979 1283.68 C 860.551 1292.29 886.172 1299.84 908.997 1310.19 C 904.438 1337.5 900.585 1359.72 888.491 1378.71 C 884.384 1385.16 876.632 1390.12 874.489 1396.71 C 872.798 1401.91 873.782 1407.74 872.989 1412.71 C 871.536 1421.81 868.257 1429.63 866.487 1438.72 C 845.352 1427.97 824.169 1411.95 796.971 1405.71 C 791.36 1404.43 783.434 1404.62 776.465 1404.21 C 756.076 1403.02 741.547 1405.14 723.953 1409.21 C 720.027 1393.63 716.101 1378.06 711.951 1362.7 C 718.299 1352.38 722.492 1339.9 728.455 1329.19 C 731.164 1326.9 733.664 1324.4 735.957 1321.69 C 738.832 1319.23 741.5 1316.57 743.957 1313.69 C 749.943 1308.51 752.648 1300.04 756.961 1293.19 C 758.117 1291.51 757.137 1287.69 757.461 1285.18 C 757.461 1282.35 757.461 1279.52 757.461 1276.68 C 758.611 1275.5 757.641 1272.19 757.961 1270.18 C 757.961 1267.68 757.961 1265.18 757.961 1262.68 C 762.785 1264.69 763.967 1270.35 770.965 1270.18 C 771.658 1271.32 774.445 1270.37 775.965 1270.68 Z" style="stroke-width: 1;"/>
    <path id="Songpa-gu" class="gu-region" fill-rule="evenodd" clip-rule="evenodd" fill="#C8C8C8" d="M 1043.53 1377.7 C 1046.82 1380.25 1048.98 1383.92 1051.53 1387.21 C 1055.44 1387.63 1059.55 1387.86 1064.03 1387.71 C 1070.42 1398.13 1064.75 1414.13 1060.53 1425.21 C 1059.02 1429.18 1055.62 1434.41 1056.03 1437.22 C 1056.88 1442.99 1069.7 1447.16 1072.03 1452.22 C 1076.38 1460.38 1078.92 1470.35 1084.04 1477.73 C 1090.03 1479.74 1098.36 1479.41 1105.54 1480.23 C 1111.34 1486.1 1117.98 1491.13 1129.05 1491.73 C 1126.24 1498.04 1122.51 1502.75 1118.54 1509.23 C 1116.26 1512.98 1108.34 1523.13 1109.04 1528.24 C 1109.63 1532.5 1116.25 1533.29 1117.54 1538.24 C 1119.03 1543.91 1116.49 1546.52 1117.54 1553.74 C 1127.61 1568.36 1151.44 1569.2 1169.06 1576.25 C 1171.23 1577.41 1175.55 1576.42 1178.56 1576.75 C 1179.72 1580.26 1178.73 1585.92 1179.06 1590.25 C 1167.17 1593.81 1161.27 1598.91 1158.05 1610.76 C 1155.74 1619.26 1156.96 1630.16 1154.05 1638.27 C 1151.78 1644.59 1146.69 1647.87 1144.05 1652.77 C 1138.23 1655.46 1131.5 1654.16 1127.55 1657.77 C 1125.45 1659.68 1122.08 1670.02 1120.54 1675.27 C 1119.42 1679.11 1121.74 1684.1 1121.04 1687.28 C 1120.23 1691.02 1115.99 1693.02 1114.04 1695.28 C 1111.53 1695.6 1107.72 1694.62 1106.04 1695.78 C 1098.63 1696.58 1092.54 1694.39 1088.04 1696.78 C 1084.36 1698.73 1082.53 1706.45 1080.54 1710.78 C 1077.9 1716.51 1075.86 1721.43 1073.53 1725.29 C 1067.61 1710.74 1059.93 1697.12 1051.53 1684.78 C 1048.66 1680.56 1044.46 1676.51 1043.03 1672.27 C 1039.23 1661.06 1040.8 1648.2 1036.53 1635.77 C 1027.06 1628.56 1015.97 1622.98 1006.52 1615.76 C 1005.05 1611.39 1003.99 1606.62 1002.52 1602.26 C 999.725 1599.05 996.725 1596.05 993.516 1593.26 C 980.43 1589.23 964.116 1589.83 952.006 1585.75 C 947.904 1584.37 943.399 1580.96 939.002 1578.75 C 928.971 1573.71 922.805 1570.45 914.996 1564.25 C 911.58 1561.53 906.98 1558.39 904.994 1555.75 C 900.859 1550.23 899.418 1543 895.492 1536.24 C 895.17 1534.06 896.144 1530.59 894.992 1529.24 C 894.992 1526.41 894.992 1523.57 894.992 1520.74 C 894.992 1517.4 894.992 1514.07 894.992 1510.73 C 894.674 1508.89 895.64 1505.75 894.492 1504.73 C 894.492 1501.73 894.492 1498.73 894.492 1495.73 C 894.492 1492.4 894.492 1489.06 894.492 1485.73 C 894.174 1483.88 895.14 1480.75 893.992 1479.73 C 893.992 1478.89 893.992 1478.06 893.992 1477.23 C 897.806 1477.91 901.254 1478.97 905.994 1478.73 C 908.328 1478.73 910.662 1478.73 912.996 1478.73 C 916.33 1478.73 919.664 1478.73 922.998 1478.73 C 924.519 1478.41 927.307 1479.37 928 1478.23 C 932.5 1478.23 937.002 1478.23 941.504 1478.23 C 943.188 1477.91 946.149 1478.87 947.004 1477.73 C 955.6 1475.6 965.397 1475.13 974.01 1471.73 C 981.655 1468.7 985.239 1462.89 990.014 1456.72 C 998.358 1445.95 1006.44 1435.59 1014.52 1425.21 C 1020.02 1418.15 1026.59 1411.48 1030.52 1404.21 C 1035.42 1395.17 1039.06 1385.52 1043.53 1377.7 Z" style="stroke-width: 1;"/>
    <path id="Yangcheon-gu" class="gu-region" fill-rule="evenodd" clip-rule="evenodd" fill="#C8C8C8" d="M 100.812 1373.7 C 103.617 1368.67 105.685 1362.91 109.314 1358.7 C 115.94 1359.39 121.237 1356.08 126.318 1357.2 C 128.648 1357.72 133.549 1362.26 134.82 1364.2 C 136.806 1367.24 137.92 1372.21 139.821 1376.71 C 144.717 1388.27 151.628 1403.3 155.325 1413.71 C 161.932 1420.36 170.346 1423.24 182.331 1425.72 C 187.569 1426.8 192.977 1428.6 197.334 1428.22 C 207.455 1427.32 216.067 1419.96 224.34 1417.71 C 226.517 1408.27 237.025 1399.23 239.343 1390.71 C 242.022 1380.86 238.785 1368.98 241.344 1360.2 C 242.964 1354.64 246.972 1351.77 249.846 1347.2 C 256.236 1347.64 260.674 1350.04 265.849 1351.7 C 271.369 1353.18 280.328 1351.22 285.853 1352.7 C 292.441 1364.83 295.885 1378.74 302.357 1390.71 C 304.074 1393.88 307.756 1396.53 308.858 1400.21 C 310.581 1405.97 308.715 1411.77 310.358 1417.71 C 301.563 1426.09 291.446 1433.14 282.851 1441.72 C 282.851 1446.72 282.851 1451.72 282.851 1456.72 C 281.688 1460.89 282.682 1467.22 282.351 1472.23 C 282.351 1480.56 282.351 1488.9 282.351 1497.23 C 280.097 1509.65 273.493 1517.71 269.348 1528.24 C 268.591 1529.48 265.04 1527.93 264.347 1529.24 C 250.096 1529.78 234.45 1532.11 226.338 1524.74 C 223.691 1517.55 221.484 1509.92 218.837 1502.73 C 214.498 1501.91 209.637 1501.6 204.334 1501.73 C 203.478 1500.59 200.517 1501.55 198.833 1501.23 C 196.332 1501.23 193.832 1501.23 191.331 1501.23 C 180.409 1509.98 171.505 1520.75 159.324 1528.24 C 155.157 1528.24 150.989 1528.24 146.822 1528.24 C 144.478 1528.56 140.833 1527.59 139.32 1528.74 C 137.32 1528.74 135.319 1528.74 133.319 1528.74 C 131.572 1523.32 129.693 1518.03 127.318 1513.24 C 117.831 1511.39 108.09 1509.79 98.311 1508.24 C 100.272 1500.68 109.624 1489.32 110.814 1481.23 C 112.564 1469.35 110.814 1453.4 110.814 1438.22 C 110.814 1423.01 112.958 1406.42 110.814 1394.71 C 109.23 1386.05 102.113 1379.64 100.812 1373.7 Z" style="stroke-width: 1;"/>
    <path id="Yeongdeungpo-gu_1_" class="gu-region" fill-rule="evenodd" clip-rule="evenodd" fill="#C8C8C8" d="M 286.854 1442.22 C 290.768 1439.02 295.112 1435.04 300.357 1430.72 C 303.906 1427.8 312.204 1423.08 313.36 1418.71 C 314.907 1412.87 311.402 1407.03 312.36 1399.21 C 305.233 1390.38 301.87 1380.34 296.857 1368.7 C 291.865 1357.12 285.896 1348.37 286.354 1332.69 C 298.94 1341.42 308.243 1354.45 321.362 1363.2 C 327.675 1367.41 335.689 1370.1 342.867 1373.7 C 363.924 1384.29 385.546 1396.19 409.383 1403.21 C 413.534 1423.23 414.275 1443.71 421.886 1459.22 C 427.297 1470.25 438.004 1474.98 447.392 1481.73 C 447.392 1481.89 447.392 1482.06 447.392 1482.23 C 437.459 1497.8 427.871 1513.72 420.386 1531.74 C 420.486 1552.85 416.263 1569.63 409.384 1583.75 C 400.093 1586.31 386.825 1586.31 378.877 1590.25 C 375.925 1591.72 365.488 1601.07 364.374 1603.76 C 361.323 1611.11 363.819 1620.99 360.373 1629.76 C 357.858 1629.91 356.422 1631.15 354.372 1631.76 C 347.434 1627.53 340.876 1622.92 334.368 1618.26 C 334.368 1617.09 334.368 1615.93 334.368 1614.76 C 334.051 1613.08 335.012 1610.11 333.868 1609.26 C 333.868 1606.59 333.868 1603.92 333.868 1601.26 C 333.552 1599.57 334.513 1596.61 333.368 1595.76 C 333.368 1592.92 333.368 1590.09 333.368 1587.25 C 333.052 1585.57 334.013 1582.61 332.868 1581.75 C 335.415 1570.8 327.088 1569.31 324.866 1562.75 C 322.501 1555.76 322.847 1547.18 320.865 1539.24 C 318.911 1531.42 317.074 1523.93 315.364 1516.74 C 305.912 1510.85 295.879 1505.55 286.357 1499.73 C 286.357 1491.23 286.357 1482.73 286.357 1474.23 C 286.357 1466.89 286.357 1459.56 286.357 1452.22 C 287.513 1449.88 286.526 1445.39 286.854 1442.22 Z M 498.902 1469.73 C 478.046 1446.07 456.574 1423.03 424.885 1410.21 C 426.953 1425.65 429.429 1440.68 434.387 1453.22 C 440.084 1458.33 447.387 1467.92 455.391 1470.23 C 465.561 1473.15 476.641 1470.94 489.399 1471.23 C 491.136 1469.53 499.581 1472.21 498.902 1469.73 Z" style="stroke-width: 1;"/>
    <path id="Yongsan-gu" class="gu-region" fill-rule="evenodd" clip-rule="evenodd" fill="#C8C8C8" d="M 638.434 1336.7 C 647.096 1342.5 650.164 1353.85 666.94 1351.2 C 667.96 1352.35 671.094 1351.38 672.942 1351.7 C 675.944 1351.7 678.944 1351.7 681.944 1351.7 C 682.964 1352.85 686.098 1351.88 687.946 1352.2 C 696.085 1355.4 702.663 1360.15 709.45 1364.7 C 712.417 1380.41 718.114 1396.04 720.454 1410.71 C 702.829 1421.56 687.235 1438.88 671.942 1455.72 C 660.354 1468.48 648.708 1478.58 636.434 1490.23 C 629.012 1497.28 625.573 1502.16 614.428 1503.23 C 601.543 1504.48 578.008 1504.9 568.418 1501.23 C 562.62 1499.02 557.601 1491.65 553.415 1486.73 C 548.629 1481.1 543.994 1476.11 539.912 1470.73 C 537.886 1467.25 534.752 1464.88 531.911 1462.22 C 529.724 1461.58 528.767 1459.7 527.41 1458.22 C 525.452 1455.85 523.285 1453.68 520.909 1451.72 C 519.117 1449.51 517.117 1447.51 514.908 1445.72 C 509.421 1440.37 504.541 1434.42 499.405 1428.72 C 525.265 1403.73 553.001 1380.62 561.919 1338.7 C 575.738 1338.01 588.418 1336.19 602.428 1335.7 C 605.262 1335.7 608.096 1335.7 610.93 1335.7 C 613.274 1335.37 616.918 1336.35 618.432 1335.2 C 621.766 1335.2 625.1 1335.2 628.434 1335.2 C 632.018 1335.44 636.985 1334.31 638.434 1336.7 Z" style="stroke-width: 1;"/>
  </g>
  <text class="gu-label" data-gu=""
        style="white-space: pre; fill: rgb(51, 51, 51); font-family: Arial, sans-serif; font-size: 28px;"
        x="62.445" y="1290.2"></text>

  <text class="gu-label" data-gu=""
        style="white-space: pre; fill: rgb(51, 51, 51); font-family: Arial, sans-serif; font-size: 28px; stroke-width: 1;"
        x="162.422" y="1471.48"></text>

  <text class="gu-label" data-gu=""
        style="white-space: pre; fill: rgb(51, 51, 51); font-family: Arial, sans-serif; font-size: 28px; stroke-width: 1;"
        x="171.272" y="1575.05"></text>

  <text class="gu-label" data-gu=""
        style="white-space: pre; fill: rgb(51, 51, 51); font-family: Arial, sans-serif; font-size: 28px; stroke-width: 1;"
        x="310.262" y="1491.94"></text>

  <text class="gu-label" data-gu=""
        style="white-space: pre; fill: rgb(51, 51, 51); font-family: Arial, sans-serif; font-size: 28px; stroke-width: 1;"
        x="305" y="1716"></text>

  <text class="gu-label" data-gu=""
        style="white-space: pre; fill: rgb(51, 51, 51); font-family: Arial, sans-serif; font-size: 28px; stroke-width: 1;"
        x="460.272" y="1721.55"></text>

  <text class="gu-label" data-gu=""
        style="white-space: pre; fill: rgb(51, 51, 51); font-family: Arial, sans-serif; font-size: 28px; stroke-width: 1;"
        x="457.212" y="1553.94"></text>

  <text class="gu-label" data-gu=""
        style="white-space: pre; fill: rgb(51, 51, 51); font-family: Arial, sans-serif; font-size: 28px;"
        x="654.969" y="1637.07"></text>

  <text class="gu-label" data-gu=""
        style="white-space: pre; fill: rgb(51, 51, 51); font-family: Arial, sans-serif; font-size: 28px;"
        x="819.441" y="1609.66"></text>

  <text class="gu-label" data-gu=""
        style="white-space: pre; fill: rgb(51, 51, 51); font-family: Arial, sans-serif; font-size: 28px;"
        x="1002.89" y="1561.16"></text>

  <text class="gu-label" data-gu=""
        style="white-space: pre; fill: rgb(51, 51, 51); font-family: Arial, sans-serif; font-size: 28px;"
        x="1106.21" y="1362.95"></text>

  <text class="gu-label" data-gu=""
        style="white-space: pre; fill: rgb(51, 51, 51); font-family: Arial, sans-serif; font-size: 28px;"
        x="914.14" y="1375.63"></text>

  <text class="gu-label" data-gu=""
        style="white-space: pre; fill: rgb(51, 51, 51); font-family: Arial, sans-serif; font-size: 28px;"
        x="940.076" y="1158.59"></text>

  <text class="gu-label" data-gu=""
        style="white-space: pre; fill: rgb(51, 51, 51); font-family: Arial, sans-serif; font-size: 28px;"
        x="889.569" y="912.198"></text>

  <text class="gu-label" data-gu=""
        style="white-space: pre; fill: rgb(51, 51, 51); font-family: Arial, sans-serif; font-size: 28px;"
        x="746.868" y="834.15"></text>

  <text class="gu-label" data-gu=""
        style="white-space: pre; fill: rgb(51, 51, 51); font-family: Arial, sans-serif; font-size: 28px;"
        x="699.92" y="1138.79"></text>

  <text class="gu-label" data-gu=""
        style="white-space: pre; fill: rgb(51, 51, 51); font-family: Arial, sans-serif; font-size: 28px;"
        x="691.574" y="969.256"></text>

  <text class="gu-label" data-gu=""
        style="white-space: pre; fill: rgb(51, 51, 51); font-family: Arial, sans-serif; font-size: 28px;"
        x="799.635" y="1223.84"></text>

  <text class="gu-label" data-gu=""
        style="white-space: pre; fill: rgb(51, 51, 51); font-family: Arial, sans-serif; font-size: 28px;"
        x="758.512" y="1361.89"></text>

  <text class="gu-label" data-gu=""
        style="white-space: pre; fill: rgb(51, 51, 51); font-family: Arial, sans-serif; font-size: 28px;"
        x="623.397" y="1313.42"></text>

  <text class="gu-label" data-gu=""
        style="white-space: pre; fill: rgb(51, 51, 51); font-family: Arial, sans-serif; font-size: 28px;"
        x="569.057" y="1427.98"></text>

  <text class="gu-label" data-gu=""
        style="white-space: pre; fill: rgb(51, 51, 51); font-family: Arial, sans-serif; font-size: 28px;"
        x="350.054" y="1320.32"></text>

  <text class="gu-label" data-gu=""
        style="white-space: pre; fill: rgb(51, 51, 51); font-family: Arial, sans-serif; font-size: 28px;"
        x="420.878" y="1234.43"></text>

  <text class="gu-label" data-gu=""
        style="white-space: pre; fill: rgb(51, 51, 51); font-family: Arial, sans-serif; font-size: 28px;"
        x="420.878" y="1049.46"></text>

  <text class="gu-label" data-gu=""
        style="white-space: pre; fill: rgb(51, 51, 51); font-family: Arial, sans-serif; font-size: 28px;"
        x="574.58" y="1213.71"></text>

</svg>